#!OML:ASF I:\salsa\salsa 7_09\Patient 1\Session 1\dancerfemale.ASF
:FULLY-SPECIFIED
:DEGREES
1851
root 1.17953 15.6084 1.68416 -569.213 793.23 145.084
lowerback 2.16234 -2.55633 -5.26804
upperback -7.46731 -3.84739 -6.61488
thorax -9.27305 -1.59608 -3.7625
lowerneck 14.2926 -5.17002 -23.19
upperneck 11.9285 -11.308 29.2653
head 4.01958 -6.08558 14.1823
rclavicle 3.65764e-014 -2.38542e-014
rhumerus -45.1136 15.0519 -101.356
rradius 67.1132
rwrist 36.712
rhand -13.7261 446.36
rfingers 7.12502
rthumb 12.3932 416.747
lclavicle 3.65764e-014 -2.38542e-014
lhumerus -52.7321 11.2867 88.3304
lradius 70.6989
lwrist -20.7465
lhand -42.7001 -6.19586
lfingers 7.12502
lthumb -15.5696 383.197
rfemur -22.5761 3.99877 10.7315
rtibia 58.1051
rfoot -33.8666 -18.2306
rtoes -21.9111
lfemur -23.1308 18.8346 -35.5699
ltibia 46.3252
lfoot -34.2509 26.3483
ltoes -47.4009
1852
root 1.01439 15.6243 1.74007 -575.933 795.07 138.451
lowerback 2.49672 -2.61438 -4.364
upperback -7.60988 -3.94225 -7.03739
thorax -9.73647 -1.7282 -4.71404
lowerneck 13.6187 -5.29482 -23.1152
upperneck 12.639 -11.4515 28.2095
head 4.32971 -6.12696 13.6805
rclavicle -1.55052e-014 4.77083e-015
rhumerus -47.0806 15.9635 -102.945
rradius 67.3628
rwrist 37.9277
rhand -15.0213 447.066
rfingers 7.12502
rthumb 11.1442 417.382
lclavicle -1.55052e-014 4.77083e-015
lhumerus -52.0767 12.2309 86.8202
lradius 71.0915
lwrist -20.7444
lhand -41.9804 -3.83858
lfingers 7.12502
lthumb -14.8763 385.607
rfemur -20.8151 3.56949 10.3443
rtibia 57.3954
rfoot -33.282 -18.8005
rtoes -18.2415
lfemur -23.5129 17.6808 -36.1928
ltibia 45.6031
lfoot -34.5911 29.0517
ltoes -45.5459
1853
root 0.849154 15.6492 1.80964 -582.803 796.816 131.897
lowerback 2.74279 -2.67468 -3.30856
upperback -7.39398 -4.00231 -7.33643
thorax -9.74971 -1.8659 -5.61726
lowerneck 12.8036 -5.27245 -22.8198
upperneck 12.8828 -11.2738 27.4722
head 4.43289 -5.99682 13.2763
rclavicle 1.27222e-014 -5.56597e-014
rhumerus -47.9015 17.1887 -104.152
rradius 67.5645
rwrist 38.4531
rhand -15.4358 448.843
rfingers 7.12502
rthumb 10.7444 419.138
lclavicle 1.27222e-014 -5.56597e-014
lhumerus -50.9829 12.9306 85.466
lradius 71.5618
lwrist -20.5616
lhand -41.7361 -3.34279
lfingers 7.12502
lthumb -14.6409 386.12
rfemur -18.6665 3.51777 10.3258
rtibia 55.9206
rfoot -32.8843 -19.0587
rtoes -15.8287
lfemur -23.8187 17.0499 -36.1754
ltibia 45.0503
lfoot -34.9378 31.3525
ltoes -44.1375
1854
root 0.691168 15.6867 1.88925 -590.402 798.641 124.834
lowerback 3.22758 -2.68252 -2.07206
upperback -7.18225 -3.99126 -7.48166
thorax -9.90895 -1.98001 -6.46319
lowerneck 12.2871 -5.01319 -22.5593
upperneck 12.9085 -10.7987 27.1056
head 4.3566 -5.73532 13.0695
rclavicle -4.77083e-015 3.81667e-014
rhumerus -48.2081 18.619 -105.085
rradius 67.4815
rwrist 38.7157
rhand -15.6421 269.303
rfingers 7.12502
rthumb 10.5454 420.982
lclavicle -4.77083e-015 3.81667e-014
lhumerus -50.2257 13.3934 84.1707
lradius 72.2212
lwrist -20.2306
lhand -42.13 -4.68603
lfingers 7.12502
lthumb -15.0204 384.749
rfemur -16.1181 4.06147 10.7461
rtibia 53.7009
rfoot -32.6418 -19.5648
rtoes -13.023
lfemur -23.8927 16.5803 -35.5556
ltibia 44.5302
lfoot -35.1599 33.5858
ltoes -42.8971
1855
root 0.539891 15.7355 1.96814 -601.894 800.672 114.052
lowerback 3.90165 -2.51996 -0.626296
upperback -6.99797 -3.73069 -7.49521
thorax -10.1871 -1.98831 -7.32142
lowerneck 11.8625 -4.6856 -22.294
upperneck 13.0291 -10.2454 26.7222
head 4.27397 -5.43635 12.8686
rclavicle 2.64384e-014 1.90833e-014
rhumerus -48.2666 19.9991 -105.756
rradius 67.528
rwrist 38.9574
rhand -15.6051 267.383
rfingers 7.12502
rthumb 10.5811 422.903
lclavicle 2.64384e-014 1.90833e-014
lhumerus -49.5939 13.8438 82.9687
lradius 73.0334
lwrist -19.6201
lhand -42.4279 -4.53666
lfingers 7.12502
lthumb -15.3073 384.877
rfemur -13.3443 5.52702 11.4414
rtibia 50.8243
rfoot -32.6057 -20.1776
rtoes -11.6854
lfemur -23.6758 16.3775 -34.4831
ltibia 44.0288
lfoot -35.7323 35.709
ltoes -41.5487
1856
root 0.388837 15.777 2.04479 -620.535 802.091 95.8779
lowerback 4.44295 -2.29103 0.613115
upperback -6.84231 -3.36521 -7.48149
thorax -10.3755 -1.92612 -8.06186
lowerneck 10.998 -4.37809 -22.0513
upperneck 13.3201 -9.67142 26.2492
head 4.31562 -5.10068 12.6256
rclavicle 3.97569e-015 -1.74931e-014
rhumerus -47.9209 21.4173 -106.252
rradius 67.6125
rwrist 39.05
rhand -15.99 265.691
rfingers 7.12502
rthumb 10.2098 424.577
lclavicle 3.97569e-015 -1.74931e-014
lhumerus -48.7973 14.3423 81.9294
lradius 73.8563
lwrist -18.877
lhand -42.604 -3.89586
lfingers 7.12502
lthumb -15.477 385.505
rfemur -10.9888 7.44814 11.7999
rtibia 47.5703
rfoot -33.382 -20.4134
rtoes -13.8093
lfemur -23.6578 16.0041 -33.5858
ltibia 43.6052
lfoot -37.037 37.8218
ltoes -39.8149
1857
root 0.205917 15.8106 2.14224 -638.703 802.002 77.7561
lowerback 5.03824 -2.27336 0.844763
upperback -6.7864 -3.35966 -7.48198
thorax -10.6884 -1.95677 -8.19029
lowerneck 9.85885 -4.01609 -21.8779
upperneck 13.5462 -8.98438 25.8707
head 4.36811 -4.69818 12.4326
rclavicle 6.16232e-015 2.38542e-014
rhumerus -47.0653 22.9768 -106.505
rradius 67.811
rwrist 38.8212
rhand -16.7631 264.288
rfingers 7.12502
rthumb 9.46392 425.944
lclavicle 6.16232e-015 2.38542e-014
lhumerus -47.7886 14.9396 81.0788
lradius 74.7536
lwrist -17.7488
lhand -42.5836 -2.9015
lfingers 7.12502
lthumb -15.4573 386.5
rfemur -9.44211 9.22825 11.4876
rtibia 44.0896
rfoot -34.6044 -20.5254
rtoes -19.687
lfemur -24.2091 15.2204 -33.3048
ltibia 43.2657
lfoot -38.2893 39.6789
ltoes -37.5309
1858
root -0.0122919 15.8346 2.25618 -650.99 801.078 65.2031
lowerback 5.7312 -2.32901 0.382187
upperback -6.86681 -3.52408 -7.52874
thorax -11.1973 -2.01519 -7.94537
lowerneck 8.81678 -3.67349 -21.5748
upperneck 13.7059 -8.32505 25.6071
head 4.39492 -4.30535 12.2654
rclavicle -3.77691e-015 -3.18055e-015
rhumerus -45.7477 24.297 -106.453
rradius 67.7913
rwrist 38.4061
rhand -17.4063 263.259
rfingers 7.12502
rthumb 8.84329 426.946
lclavicle -3.77691e-015 -3.18055e-015
lhumerus -46.9193 15.3447 80.4094
lradius 76.0948
lwrist -16.08
lhand -45.2851 1.20606
lfingers 7.12502
lthumb -18.058 390.388
rfemur -8.67291 10.8218 10.7778
rtibia 40.5161
rfoot -36.5677 -19.8939
rtoes -27.3422
lfemur -25.3382 14.6157 -33.3592
ltibia 43.1273
lfoot -38.8103 40.7022
ltoes -34.8582
1859
root -0.208221 15.8636 2.35834 -665.612 799.789 50.7917
lowerback 6.69278 -2.05122 0.453692
upperback -6.81739 -3.19706 -7.57218
thorax -11.6863 -1.88212 -8.08483
lowerneck 7.80925 -3.39411 -21.0842
upperneck 13.9361 -7.76099 25.3958
head 4.46072 -3.94635 12.0865
rclavicle 2.28602e-014 5.08889e-014
rhumerus -44.1936 25.2867 -106.231
rradius 67.7276
rwrist 37.8641
rhand -17.9144 262.643
rfingers 7.12502
rthumb 8.35292 427.543
lclavicle 2.28602e-014 5.08889e-014
lhumerus -45.9362 15.4749 79.8337
lradius 77.3007
lwrist -14.1816
lhand -51.0042 9.28802
lfingers 7.12502
lthumb -23.5526 397.866
rfemur -7.65721 12.6282 10.5749
rtibia 36.8938
rfoot -39.4218 -18.2511
rtoes -30.1417
lfemur -25.8884 15.1405 -32.7556
ltibia 43.1926
lfoot -39.3758 40.879
ltoes -31.8445
1860
root -0.407064 15.8972 2.45978 -678.144 798.531 38.2174
lowerback 7.48271 -1.82688 1.06265
upperback -6.83705 -2.85725 -7.39683
thorax -12.1646 -1.78541 -8.30298
lowerneck 6.75684 -3.07879 -20.6314
upperneck 14.2261 -7.15817 25.1969
head 4.54995 -3.56648 11.927
rclavicle 2.38542e-015 -1.74931e-014
rhumerus -42.5323 26.3845 -105.886
rradius 67.5951
rwrist 37.4255
rhand -18.4459 261.882
rfingers 7.12502
rthumb 7.83994 428.283
lclavicle 2.38542e-015 -1.74931e-014
lhumerus -44.8966 15.6708 79.3723
lradius 78.3424
lwrist -12.2466
lhand -44.622 5.35461
lfingers 7.12502
lthumb -17.4199 394.594
rfemur -7.12078 13.7419 11.0547
rtibia 33.3447
rfoot -41.3097 -15.3116
rtoes -32.6423
lfemur -26.8352 16.139 -31.4879
ltibia 43.5738
lfoot -39.5122 40.7312
ltoes -30.0414
1861
root -0.595537 15.9347 2.5636 -689.157 797.082 26.9471
lowerback 7.96624 -1.57963 1.88882
upperback -6.88921 -2.42179 -7.04502
thorax -12.4715 -1.65199 -8.46912
lowerneck 5.77803 -2.70308 -20.1631
upperneck 14.4262 -6.4814 25.0637
head 4.58712 -3.15303 11.795
rclavicle 3.97569e-015 3.18055e-014
rhumerus -40.8317 27.4795 -105.376
rradius 67.617
rwrist 36.898
rhand -18.569 261.354
rfingers 7.12502
rthumb 7.72121 428.807
lclavicle 3.97569e-015 3.18055e-014
lhumerus -43.757 16.043 79.076
lradius 79.2148
lwrist -10.4748
lhand -37.7637 3.85496
lfingers 7.12502
lthumb -10.8113 393.557
rfemur -6.91936 13.7263 12.0916
rtibia 29.976
rfoot -42.6811 -11.1598
rtoes -35.5261
lfemur -28.0783 17.3213 -29.7684
ltibia 44.3142
lfoot -39.5931 40.7134
ltoes -29.6996
1862
root -0.773988 15.964 2.67245 -698.351 795.311 17.3746
lowerback 8.26096 -1.23271 2.69432
upperback -6.97201 -1.82849 -6.61997
thorax -12.6576 -1.43408 -8.57238
lowerneck 4.9217 -2.32511 -19.5754
upperneck 14.4946 -5.81472 25.0331
head 4.56985 -2.74226 11.6783
rclavicle 3.55825e-014 -3.81667e-014
rhumerus -39.1293 28.4058 -104.788
rradius 67.7233
rwrist 36.1463
rhand -18.3787 261.028
rfingers 7.12502
rthumb 7.90481 429.14
lclavicle 3.55825e-014 -3.81667e-014
lhumerus -42.6433 16.4044 78.9131
lradius 80.1108
lwrist -8.74925
lhand -33.5224 4.74978
lfingers 7.12502
lthumb -6.71849 394.623
rfemur -7.00921 12.6319 13.5618
rtibia 27.0116
rfoot -43.5569 -7.93697
rtoes -35.648
lfemur -29.5514 18.618 -27.761
ltibia 45.5594
lfoot -39.973 40.5065
ltoes -29.2907
1863
root -0.947547 15.9731 2.78729 -705.979 793.371 9.25993
lowerback 8.61842 -0.855636 3.43163
upperback -7.19555 -1.17774 -6.03053
thorax -13.0206 -1.18365 -8.46941
lowerneck 4.04773 -1.9629 -18.9675
upperneck 14.6917 -5.18778 24.9446
head 4.60856 -2.34714 11.5405
rclavicle -8.15017e-015 -9.06458e-014
rhumerus -37.5141 29.367 -104.195
rradius 67.713
rwrist 35.3305
rhand -18.2144 260.819
rfingers 7.12502
rthumb 8.06346 429.355
lclavicle -8.15017e-015 -9.06458e-014
lhumerus -41.9919 16.714 78.846
lradius 81.293
lwrist -6.89906
lhand -31.847 6.90716
lfingers 7.12502
lthumb -5.10097 396.826
rfemur -7.31012 10.9227 15.4292
rtibia 24.6455
rfoot -44.0808 -5.1353
rtoes -33.3779
lfemur -31.1803 20.004 -25.4275
ltibia 47.2849
lfoot -40.9811 39.6931
ltoes -28.3582
1864
root -1.12776 15.9592 2.90526 -713.136 791.617 1.19685
lowerback 8.86079 -0.562797 4.47476
upperback -7.59896 -0.552801 -5.16965
thorax -13.5317 -0.971209 -8.23751
lowerneck 3.21253 -1.62492 -18.325
upperneck 14.9278 -4.60267 24.7169
head 4.66655 -1.97836 11.3436
rclavicle 1.53064e-014 4.45278e-014
rhumerus -35.8816 30.4678 -103.544
rradius 67.5759
rwrist 34.413
rhand -18.0901 260.653
rfingers 7.12502
rthumb 8.18341 429.525
lclavicle 1.53064e-014 4.45278e-014
lhumerus -41.758 16.93 78.8095
lradius 82.5415
lwrist -4.89477
lhand -30.4943 8.49972
lfingers 7.12502
lthumb -3.7948 398.446
rfemur -8.02652 9.09569 18.1388
rtibia 22.8538
rfoot -44.2297 -2.79793
rtoes -32.5655
lfemur -33.3447 21.3155 -22.5122
ltibia 49.4008
lfoot -41.0903 38.3182
ltoes -27.9297
